<svg xmlns="http://www.w3.org/2000/svg" viewBox="0 0 96 96">
  <defs>
    <linearGradient id="g1" x1="0" y1="0" x2="1" y2="1">
      <stop offset="0%" stop-color="#fde68a"/>
      <stop offset="45%" stop-color="#f59e0b"/>
      <stop offset="100%" stop-color="#b45309"/>
    </linearGradient>
    <linearGradient id="g2" x1="0" y1="0" x2="0" y2="1">
      <stop offset="0%" stop-color="#fef3c7"/>
      <stop offset="100%" stop-color="#f59e0b"/>
    </linearGradient>
    <linearGradient id="g3" x1="0" y1="0" x2="0" y2="1">
      <stop offset="0%" stop-color="#27272a"/>
      <stop offset="100%" stop-color="#09090b"/>
    </linearGradient>
  </defs>
  <circle cx="48" cy="48" r="46" fill="url(#g1)"/>
  <circle cx="48" cy="48" r="40" fill="url(#g3)"/>
  <circle cx="48" cy="48" r="36.5" fill="none" stroke="url(#g1)" stroke-width="1.2" opacity="0.9"/>
  <path d="M48 22 L66 64 L57.5 64 L53.5 54 L42.5 54 L38.5 64 L30 64 Z M48 38.5 L44.8 47 L51.2 47 Z" fill="url(#g2)"/>
  <rect x="22" y="68" width="52" height="9" rx="2" fill="#0c0a09" stroke="url(#g1)" stroke-width="1"/>
  <rect x="23.5" y="69.2" width="5.4" height="3.6" fill="#fbbf24"/>
  <rect x="29.7" y="72.8" width="5.4" height="3.6" fill="#fbbf24"/>
  <rect x="35.9" y="69.2" width="5.4" height="3.6" fill="#fbbf24"/>
  <rect x="42.1" y="72.8" width="5.4" height="3.6" fill="#fbbf24"/>
  <rect x="48.3" y="69.2" width="5.4" height="3.6" fill="#fbbf24"/>
  <rect x="54.5" y="72.8" width="5.4" height="3.6" fill="#fbbf24"/>
  <rect x="60.7" y="69.2" width="5.4" height="3.6" fill="#fbbf24"/>
  <rect x="66.9" y="72.8" width="5.4" height="3.6" fill="#fbbf24"/>
  <path d="M48 8.5 l1.8 3.6 4 .6 -2.9 2.8 .7 4 -3.6 -1.9 -3.6 1.9 .7 -4 -2.9 -2.8 4 -.6 Z" fill="url(#g2)"/>
</svg>
